PathFileType	4	(X/Y/Z)	Patient4_TMGait_0pt5_02_left_34.trc.trc
DataRate	CameraRate	NumFrames	NumMarkers	Units	OrigDataRate	OrigDataStartFrame	OrigNumFrames
76.502732240437	76.502732240437	4	33	mm	76.502732240437	36	       141
Frame#	Time	Sacral			L.Shoulder			Chest			R.Shoulder			Neck			R.ASIS			L.ASIS			R.Thigh.Superior			R.Thigh.Lateral			R.Thigh.Inferior			R.Patella			L.Thigh.Superior			L.Thigh.Lateral			L.Thigh.Inferior			L.Patella			L.Shank.Superior			L.Shank.Lateral			L.Shank.Inferior			R.Shank.Superior			R.Shank.Lateral			R.Shank.Inferior			R.Heel			R.Midfoot.Superior			R.Midfoot.Lateral			R.Toe			L.Heel			L.Midfoot.Lateral			L.Midfoot.Superior			L.Toe			L.Elbow			L.Wrist			R.Elbow			R.Wrist			
		X1	Y1	Z1	X2	Y2	Z2	X3	Y3	Z3	X4	Y4	Z4	X5	Y5	Z5	X6	Y6	Z6	X7	Y7	Z7	X8	Y8	Z8	X9	Y9	Z9	X10	Y10	Z10	X11	Y11	Z11	X12	Y12	Z12	X13	Y13	Z13	X14	Y14	Z14	X15	Y15	Z15	X16	Y16	Z16	X17	Y17	Z17	X18	Y18	Z18	X19	Y19	Z19	X20	Y20	Z20	X21	Y21	Z21	X22	Y22	Z22	X23	Y23	Z23	X24	Y24	Z24	X25	Y25	Z25	X26	Y26	Z26	X27	Y27	Z27	X28	Y28	Z28	X29	Y29	Z29	X30	Y30	Z30	X31	Y31	Z31	X32	Y32	Z32	X33	Y33	Z33	

36	44.197500000000	751.296389470183	1006.615188098055	483.949576317584	919.793677660277	1425.587708156171	289.915815197599	1035.815182909555	1355.848667505644	441.579630663283	968.892174188679	1435.275025540621	620.891611249348	934.976492794115	1488.228026889935	438.835945549796	977.462039466737	934.650242712258	591.559101091006	958.187443577294	951.469140003100	317.718244225781	983.090312151560	720.748426513488	570.441965425024	884.404783175012	625.245470661820	633.245972168394	950.375221386329	557.455883659596	556.749788659528	932.683555328836	458.802132032016	568.816173224492	1030.739583469833	765.400946591082	360.138240604470	970.076423487855	637.297795163223	291.545289338021	1065.733580236029	573.411934610557	357.398658127913	1078.069694674844	500.242228031091	363.932837413095	1054.604480112186	425.536680611540	354.636038205692	973.252682688779	306.855622316085	300.031220384906	1030.848539507569	197.371625916300	368.802002389442	870.820108676202	385.305111494585	574.911867500468	767.305222482617	316.546384867587	640.188338475326	769.728113590681	211.417983261576	581.501792171080	585.977532173712	88.336318838196	560.342302572390	764.794356659176	102.302100752427	589.737061235294	667.721632677513	59.080134715122	630.674160061266	870.490017681447	36.467901330623	612.505876098280	910.114583005010	38.168825064764	405.077943630545	986.519694014844	36.123155842724	326.513456750430	1067.959019061367	97.728386306832	355.501829856761	1197.400223777283	47.648495186551	331.333658180610	800.852063002994	1085.715516875924	199.822118797009	788.804962847388	825.573129426947	212.957824279289	1072.883437653679	1112.411756280020	739.123162004455	1299.114058483949	1132.957257617507	631.555193477347	
37	44.210571428571	751.839439998087	1007.216185513058	480.231919118410	920.680817453136	1426.449820978846	286.800682924761	1036.042426321002	1357.015198111774	439.113720535503	968.064618138570	1436.577538051274	617.968185419572	934.937959237921	1489.200944104612	435.678474813361	977.691341169638	935.646424306162	588.820890247233	959.629676822949	952.438131289664	315.085699899495	986.699819553532	722.149856317070	568.404609135680	889.765448781818	625.325391028964	631.220881454248	957.743925184344	558.051149156070	555.532865345962	940.898591949254	457.750065868158	569.182282488854	1031.234453282963	764.848089441547	357.102652424893	968.824125301486	637.104882347666	289.658254952151	1063.752689795426	572.476169484916	355.756153521650	1075.361131030747	499.461144802926	362.984639382369	1051.372675314300	424.854775966387	353.809484980544	969.430148667899	306.644682804974	299.189587968506	1025.661816574856	196.993824096460	368.650419198876	876.461911210861	385.442845100423	574.898800700396	770.210929578350	320.257439297053	639.337114608912	770.526494275101	214.475649324479	581.784619053325	583.220806555371	97.738474771850	560.338392171745	762.099421987605	103.521134086364	589.608294220018	663.430000832055	64.707236461212	630.589075111076	864.128627217930	35.928455444860	612.330769049815	903.680938757662	38.154155164045	405.053637238909	980.044608929074	36.130227225165	326.446015918553	1061.519609650383	97.685701322990	355.492429869901	1190.991695227316	47.477924527891	331.171776458498	805.549707812480	1085.150071653194	195.635912671761	800.478660982429	824.685226953337	208.525231841088	1066.461707241224	1111.301157309539	736.143521497058	1294.488326456258	1118.857222682549	629.815094999252	
38	44.223642857143	752.261429067387	1007.752727456363	476.534888957120	921.680601627591	1427.288988969428	283.724753476829	1036.225108526043	1358.151383839972	436.789468106562	967.028099856178	1437.794495113785	615.135433515773	934.827287976120	1490.129126973784	432.576569502193	977.802018282789	936.576645018056	586.136868226785	960.953005441877	953.356353583529	312.565367542462	990.773229706619	723.751244386000	566.390118045494	895.852546692789	625.434957058728	629.282849942969	965.950531806785	558.832479289739	554.358848452400	949.979281484800	456.922764868950	569.517251729875	1031.411032358042	764.070859836452	353.906798069518	967.142622529695	636.845993973240	287.667514054822	1061.323049103001	571.461360285474	353.987424881242	1072.205592541028	498.640698467708	361.829584789049	1047.744609045214	424.152525648180	352.805102864384	965.266952799561	306.326285177433	298.284590163897	1020.301077875996	196.596313737495	368.406713645887	883.047175428815	385.780960997202	574.888847167172	774.089154542556	324.398030243779	638.438474326000	772.156136154978	218.022889536176	582.035275846215	581.382057599996	108.413012355556	560.175721289942	759.924990660240	105.178649944546	589.409230930285	659.662611427894	71.377201517819	630.401889164585	857.766908669911	35.229295205029	612.188302457913	897.184186211604	38.141851270663	405.032274799630	973.517717039802	36.104745775517	326.387553732923	1055.069184325797	97.573974473907	355.482187493899	1184.561052390725	47.151174000146	331.057437774210	810.532120257493	1084.621157133200	191.248556976819	812.999452382203	824.014747510844	203.875341043206	1059.315995686801	1110.047494480082	733.209007119451	1288.738390646056	1103.883941425416	628.742761156090	
39	44.236714285714	752.550727783910	1008.201893413756	472.903373038263	922.758667714066	1428.071394645411	280.719427269549	1036.356604093542	1359.208525778102	434.613197202189	965.817139380685	1438.879947205809	612.415769961661	934.659010883611	1490.981043943409	429.561406269790	977.784508046539	937.405763812938	583.519153675081	962.120244795652	954.199809419791	310.143678851400	995.244344099225	725.566878158377	564.370260494372	902.603164259546	625.617387684521	627.436828616689	974.880223139079	559.847138080397	553.203321126410	959.824869047523	456.385103741063	569.751209826294	1031.283024532254	763.144308541826	350.624881034072	965.140337687365	636.565804478056	285.583255802959	1058.555102667795	570.420586839012	352.095136349637	1068.704191274750	497.802924770075	360.463735950511	1043.820171675500	423.438746528619	351.626413439760	960.843623624165	305.929506716621	297.295954243284	1014.801679046431	196.183500467418	368.064218115753	890.506723240018	386.356168584134	574.813319689698	778.929782505308	328.959372939735	637.467702235434	774.602805475710	222.083996177370	582.198046231523	580.564808689239	120.321735092463	559.791305330614	758.312899795349	107.426163071711	589.162517528790	656.509043762151	79.142407920743	630.068141530858	851.472490789026	34.376624848742	612.110646353423	890.641811993958	38.133078686237	404.999495081583	966.955750324720	36.055264818746	326.324097863115	1048.614094677225	97.411509098986	355.457708493350	1178.116377086236	46.707963645294	330.978944167265	815.834705327467	1084.090437777488	186.677498178130	826.312260305544	823.566476502880	199.018874964571	1051.454349108344	1108.619430500422	730.351500092228	1281.746966229245	1088.097567179410	628.409272287990	
